<svg width="24" height="28" viewBox="0 0 24 28" fill="none" xmlns="http://www.w3.org/2000/svg">
<path d="M10.9013 2.22412C10.9013 1.83026 10.8867 1.46558 10.9086 1.10091C10.9451 0.459072 11.39 0.0287519 11.988 0.0141647C12.5788 0.00687116 13.0456 0.415311 13.0821 1.00609C13.1039 1.40724 13.0894 1.80109 13.0894 2.22412C13.2571 2.26788 13.3957 2.31164 13.5343 2.34081C17.0935 3.07746 19.6171 6.14805 19.6536 9.78754C19.6682 11.1879 19.6755 12.5956 19.6463 13.9959C19.639 14.6305 19.814 15.0827 20.3902 15.4473C21.5499 16.1694 22.075 17.5844 21.7614 18.8753C21.4259 20.2611 20.3392 21.2384 18.9388 21.3989C18.6835 21.4281 18.4283 21.4354 18.173 21.4354C14.0521 21.4354 9.93854 21.4427 5.81768 21.4281C5.36548 21.4281 4.89869 21.3989 4.46837 21.2603C3.14823 20.8446 2.36053 19.911 2.18548 18.5398C2.01773 17.2343 2.51369 16.1548 3.61502 15.4473C4.16933 15.09 4.35167 14.6669 4.33708 14.047C4.30791 12.6247 4.3152 11.2025 4.32979 9.78025C4.37355 6.52003 6.41575 3.67553 9.47175 2.61067C9.92396 2.4721 10.3907 2.36999 10.9013 2.22412ZM11.988 19.2546C14.0084 19.2546 16.0287 19.2546 18.049 19.2546C18.2094 19.2546 18.3772 19.2619 18.5377 19.2473C19.0774 19.2108 19.4785 18.9118 19.6025 18.4596C19.7411 17.9709 19.566 17.4968 19.0701 17.2051C18.348 16.7748 17.8302 16.184 17.6187 15.3744C17.5166 14.9951 17.4655 14.5867 17.4582 14.1929C17.4363 12.7196 17.4655 11.239 17.4436 9.76566C17.3999 5.68856 13.0529 3.09205 9.46446 5.01026C7.55355 6.03136 6.5835 7.687 6.53245 9.85318C6.49598 11.363 6.53245 12.8727 6.52515 14.3898C6.51786 15.5932 6.02919 16.5341 4.98621 17.1613C4.90598 17.2051 4.82575 17.2562 4.76011 17.3145C4.43919 17.599 4.27874 17.9563 4.38085 18.3867C4.49025 18.8316 4.7674 19.1306 5.21961 19.2108C5.43112 19.2473 5.65722 19.2546 5.86873 19.2546C7.91093 19.2546 9.95313 19.2546 11.988 19.2546Z" fill="white"/>
<path d="M23.7963 7.55562C23.8401 8.832 22.1917 9.18209 21.7176 8.07346C21.6593 7.94218 21.6301 7.79631 21.6009 7.65773C21.0685 5.41131 19.9015 3.57333 18.1073 2.12921C17.9906 2.03439 17.8739 1.95416 17.7718 1.84476C17.378 1.42173 17.3561 0.845539 17.7135 0.400631C18.0417 -0.000514871 18.6324 -0.117212 19.0992 0.145356C19.2597 0.232879 19.3983 0.349576 19.5368 0.466273C21.6957 2.23132 23.1034 4.47774 23.7379 7.19824C23.7671 7.3514 23.789 7.48998 23.7963 7.55562Z" fill="white"/>
<path d="M6.53243 1.18846C6.53973 1.39998 6.42303 1.67713 6.18234 1.89594C6.05106 2.01993 5.89789 2.12933 5.75932 2.24603C4.08179 3.6464 2.96588 5.39685 2.44074 7.51928C2.40427 7.65786 2.38239 7.80373 2.33863 7.94231C2.149 8.53308 1.60198 8.854 1.0185 8.70813C0.442306 8.56955 0.099508 8.02254 0.230792 7.40988C0.690287 5.17804 1.70409 3.23066 3.2795 1.58961C3.75358 1.09365 4.29331 0.648741 4.83303 0.21842C5.16854 -0.0587352 5.57698 -0.0587352 5.96354 0.145485C6.32821 0.335117 6.51785 0.656034 6.53243 1.18846Z" fill="white"/>
<path d="M12.0683 27.9996C10.2594 27.985 8.80803 26.6065 8.7205 24.8925C8.68404 24.2288 9.07789 23.7183 9.68326 23.6526C10.3324 23.5797 10.8283 23.9736 10.894 24.681C10.945 25.2791 11.3243 25.7897 11.9953 25.8115C12.5277 25.8261 12.9799 25.4469 13.0748 24.9144C13.1039 24.7686 13.0966 24.6227 13.1331 24.4841C13.4321 23.2442 15.2337 23.412 15.2701 24.7102C15.3358 26.2273 14.1177 27.7006 12.5788 27.9486C12.3819 27.9704 12.1849 27.985 12.0683 27.9996Z" fill="white"/>
</svg>