<svg width="86" height="20" viewBox="0 0 86 20" fill="none" xmlns="http://www.w3.org/2000/svg">
<defs>
<linearGradient id="paint0_linear_177_6174" x1="31.3426" y1="9.86874" x2="42.5501" y2="9.86874" gradientUnits="userSpaceOnUse">
<stop stop-color="#D9D9D9"/>
<stop offset="1" stop-color="white"/>
</linearGradient>
</defs>
<path d="M31.583 15.2637H42.2973C42.4219 15.2637 42.5465 15.3571 42.5465 15.5129V18.8455C42.5465 18.9701 42.4531 19.0947 42.2973 19.0947H31.583C31.4585 19.0947 31.3339 19.0012 31.3339 18.8455V15.5129C31.3339 15.3571 31.4585 15.2637 31.583 15.2637ZM31.583 0.687279H42.2973C42.4219 0.687279 42.5465 0.780713 42.5465 0.936444V4.23794C42.5465 4.36253 42.4531 4.48712 42.2973 4.48712H31.583C31.4585 4.48712 31.3339 4.39367 31.3339 4.23794V0.936444C31.3339 0.780713 31.4585 0.687279 31.583 0.687279Z" fill="url(#paint0_linear_177_6174)"/>
<path d="M57.4032 19.375C56.4377 19.375 55.5033 19.2504 54.6312 19.0012C53.7591 18.7521 52.9493 18.3472 52.2018 17.7865C51.4543 17.2259 50.8625 16.4473 50.3953 15.4506C49.9593 14.4539 49.7413 13.3015 49.7413 11.9622V0.905323C49.7413 0.780738 49.8347 0.656148 49.9904 0.656148H53.4788C53.6034 0.656148 53.728 0.749592 53.728 0.905323V11.9622C53.728 13.2704 54.0083 14.2047 54.6001 14.7031C55.1919 15.2326 56.1262 15.4817 57.4032 15.4817C58.6491 15.4817 59.5835 15.2014 60.1752 14.6719C60.767 14.1424 61.0785 13.2392 61.0785 11.9311V0.874175C61.0785 0.74959 61.1719 0.625 61.3277 0.625H64.816C64.9406 0.625 65.0652 0.718444 65.0652 0.874175V11.9311C65.0652 13.2392 64.8472 14.3916 64.4111 15.3883C63.9751 16.385 63.3833 17.1636 62.6358 17.7243C61.8883 18.2849 61.0785 18.6898 60.2064 18.9701C59.3343 19.2504 58.3999 19.375 57.4032 19.375Z" fill="white"/>
<path d="M72.1977 18.8144V0.936444C72.1977 0.81186 72.2911 0.687279 72.4468 0.687279H75.9352C76.0598 0.687279 76.1844 0.780713 76.1844 0.936444V14.9522C76.1844 15.0768 76.2778 15.2014 76.4335 15.2014H84.7807C84.9053 15.2014 85.0299 15.2948 85.0299 15.4506V18.8144C85.0299 18.9389 84.9053 19.0635 84.7807 19.0635H72.4468C72.2911 19.0635 72.1977 18.9389 72.1977 18.8144Z" fill="white"/>
<path d="M1.49585 13.7687H0.872923C0.530316 13.7687 0.25 13.4884 0.25 13.1457V12.5228C0.25 12.1802 0.530316 11.8999 0.872923 11.8999H1.49585C1.83845 11.8999 2.11877 12.1802 2.11877 12.5228V13.1457C2.11877 13.4884 1.83845 13.7687 1.49585 13.7687Z" fill="white"/>
<path d="M16.9132 0.936444V10.9032C16.9132 11.1524 16.6018 11.2458 16.4772 11.0278L9.56271 0.780713C9.53156 0.718421 9.43813 0.687279 9.37584 0.687279H6.10549C5.9809 0.687279 5.85632 0.780713 5.85632 0.936444V13.3326V14.2047C5.85632 14.5162 5.73173 14.7965 5.51371 15.0145C5.29568 15.2325 5.01537 15.3571 4.70391 15.3571H3.20889C2.58597 15.3571 2.08763 15.8555 2.08763 16.4784V17.9734C2.08763 18.5963 2.58597 19.0947 3.20889 19.0947H4.70391C5.32683 19.0947 5.82517 18.5963 5.82517 17.9734V16.4784C5.82517 16.1669 5.94976 15.8866 6.16778 15.6686C6.3858 15.4506 6.66612 15.326 6.97758 15.326H8.65947C9.2824 15.326 9.78074 14.8276 9.78074 14.2047V8.72299C9.78074 8.47382 10.0922 8.38038 10.2168 8.59841L17.3493 18.9701C17.3804 19.0324 17.4738 19.0635 17.5361 19.0635H20.6508C20.7753 19.0635 20.8999 18.9701 20.8999 18.8144V0.936444C20.8999 0.81186 20.8065 0.687279 20.6508 0.687279H17.1624C17.0378 0.687279 16.9132 0.780713 16.9132 0.936444Z" fill="white"/>
<path d="M38.5286 7.88205H35.3206C34.2305 7.88205 33.3272 6.97881 33.3272 5.88869V2.68063C33.3272 1.59052 32.424 0.687279 31.3339 0.687279C30.2438 0.687279 29.3405 1.59052 29.3405 2.68063V5.88869C29.3405 6.97881 28.4373 7.88205 27.3472 7.88205H24.1391C23.049 7.88205 22.1458 8.78528 22.1458 9.8754C22.1458 10.9655 23.049 11.8688 24.1391 11.8688H27.3472C28.4373 11.931 29.3405 11.0901 29.3405 9.96883V7.88205C29.3405 6.79193 30.2438 5.88869 31.3339 5.88869C32.424 5.88869 33.3272 6.79193 33.3272 7.88205V9.96883C33.3272 11.059 34.2305 11.931 35.3206 11.8688H38.4352C39.5253 11.8688 40.4909 11.0278 40.522 9.9377C40.5531 8.81643 39.6499 7.88205 38.5286 7.88205Z" fill="white"/>
<path d="M33.3272 13.8621V16.9767C33.3272 18.0668 32.4863 19.0324 31.3962 19.0635C30.2749 19.0947 29.3405 18.1914 29.3405 17.0702V13.8621C29.3405 12.772 30.2438 11.8688 31.3339 11.8688C32.4552 11.8688 33.3272 12.7409 33.3272 13.8621Z" fill="white"/>
</svg>
